<?xml version="1.0" encoding="UTF-8"?> <svg xmlns="http://www.w3.org/2000/svg" width="200px" height="200px" viewBox="0 0 2000 2000" preserveAspectRatio="xMidYMid meet"> <g id="layer101" fill="#f8a71e" stroke="none"> <path d="M833 1986 c-342 -66 -616 -289 -741 -606 -196 -497 35 -1066 519 -1277 131 -57 234 -77 394 -77 170 0 271 22 413 89 124 59 201 115 298 218 133 141 225 325 254 508 18 113 8 333 -19 434 -95 341 -364 605 -709 696 -100 27 -308 34 -409 15z"></path> </g> <g id="layer102" fill="#fffefd" stroke="none"> <path d="M904 1458 c4 -156 9 -304 12 -329 5 -44 4 -48 -28 -69 -61 -42 -89 -74 -125 -142 -30 -58 -72 -106 -147 -166 -23 -18 -20 -41 8 -53 40 -19 118 14 176 72 52 54 52 54 65 -21 4 -25 -6 -76 -38 -185 -38 -127 -43 -153 -32 -170 15 -24 48 -31 62 -13 6 7 29 65 51 128 22 63 43 123 47 133 18 45 25 4 25 -147 0 -175 5 -196 50 -196 32 0 38 29 46 198 4 89 10 162 14 162 3 0 24 -62 45 -137 40 -146 62 -186 93 -167 27 17 26 58 -8 201 -18 74 -30 137 -27 139 3 3 35 -40 71 -96 69 -105 86 -121 111 -100 25 21 17 49 -44 159 -55 99 -59 112 -66 190 -8 98 -33 174 -72 215 l-26 29 11 305 c7 168 8 310 4 314 -13 13 -120 28 -206 28 l-78 0 6 -282z m136 -554 c0 -19 -63 -84 -81 -84 -8 0 3 14 23 30 20 17 40 39 43 50 8 24 15 26 15 4z"></path> <path d="M604 1651 c-45 -23 -86 -47 -92 -54 -5 -6 -15 -70 -21 -142 -9 -106 -14 -132 -28 -140 -10 -5 -52 -44 -93 -85 -41 -41 -84 -80 -95 -87 -19 -10 -19 -12 -4 -28 15 -15 22 -16 55 -5 22 7 51 24 67 38 l27 26 0 -43 c0 -27 -13 -74 -36 -127 -29 -67 -34 -87 -24 -98 19 -24 34 -9 75 74 22 44 43 80 47 80 10 0 10 5 -6 -107 -13 -93 -9 -113 21 -113 18 0 29 32 38 110 12 105 21 114 34 35 19 -113 22 -123 36 -129 26 -10 36 28 25 101 -17 119 -13 125 28 48 36 -67 63 -88 70 -53 2 9 -9 45 -24 80 -21 49 -27 80 -28 138 -1 56 -6 84 -21 109 l-21 35 28 175 c16 97 27 182 26 189 -2 10 -27 1 -84 -27z"></path> <path d="M1365 1489 l21 -160 -27 -19 c-14 -11 -36 -43 -49 -72 -12 -29 -38 -70 -58 -90 -27 -28 -33 -41 -25 -49 18 -18 64 -1 99 37 18 19 35 34 37 34 15 0 15 -58 0 -143 -14 -84 -15 -100 -3 -107 24 -15 36 5 55 90 10 44 22 80 26 80 4 0 10 -35 14 -77 9 -115 12 -125 38 -121 21 3 22 7 19 83 -1 44 -5 90 -8 103 -11 51 14 16 42 -60 24 -65 35 -84 52 -86 30 -5 29 19 -8 119 -27 72 -28 81 -11 65 11 -10 32 -35 47 -57 28 -40 64 -53 64 -22 0 9 -18 43 -40 74 -25 36 -44 77 -50 108 -10 56 -31 101 -54 120 -10 8 -17 43 -22 113 l-7 100 -41 30 c-43 32 -110 68 -124 68 -4 0 2 -72 13 -161z"></path> </g> </svg> 